<svg id="Layer_1" data-name="Layer 1" xmlns="http://www.w3.org/2000/svg" viewBox="0 0 792 792"><defs><style>.cls-1{fill:#2b1f5b;}.cls-2{fill:#d3b32a;}</style></defs><title>EA final logo</title><path class="cls-1" d="M202.06,306.4c0,30.3,19.36,58.92,47.55,58.92H261l-.84,3.37H253.4c-59.34,0-99.32,67.75-99.32,126.25,0,44.19,14.31,83.32,68.6,83.32,72.8,0,117-61.86,117-109.41,0-27.77-17.25-52.18-54.29-52.18-21,0-37,14.73-37,37.87,0,18.52,12.62,31.56,30.3,32,2.95,25.67-21,45-45,45-29.88,0-46.71-18.94-46.71-42.92,0-45.87,54.71-75.33,98.47-75.33,48.39,0,70.7,28.19,70.7,61,0,48.82-49.24,109-147.29,109-92.16,0-133.4-53-133.4-106.47,0-55.55,48.81-107.31,154.44-108.15l.42-.84c-64.81-1.26-101.84-29.46-101.84-68.17,0-59.33,86.69-74.06,130-74.06,52.18,0,96.37,21.46,96.37,63.54,0,33.25-27.35,54.29-51.76,54.29-21,0-44.19-17.25-37.87-42.5,15.15-3.37,29-13.47,29-34.93,0-21.88-14.31-36.61-34.93-36.61C223.1,229.39,202.06,274.84,202.06,306.4Z"/><path class="cls-1" d="M453.95,362h88L481.24,165.79c-42.28,96.68-86,201.87-134.25,269l3.05,4.49c13.41-17.91,26.31-38.66,38.93-61.72h0l7.84-15h.06c12.08-23,23.86-48.19,36-75.2Z"/><path class="cls-1" d="M553.62,399.76,542,362.05h-88l.16.56h0l2.66,9.39h0l8.84,31.56c10.1,35.77,9.26,68.17-29.46,68.17l-.42,2.95H610.43l.42-2.95C581.82,471.72,569.19,449.42,553.62,399.76Z"/><path class="cls-2" d="M370.69,349l-1.29,2.43q-2.95,5.53-5.9,10.86h-14a16.35,16.35,0,1,0-.42,13.06h7.05q-1.61,2.81-3.21,5.54l-4.05,6.92H366l1.32-2.28c2.94-5,5.83-10.12,8.63-15.21L387.07,349Z"/><path class="cls-2" d="M643.12,365.29c-4.69-1.22-9.4-2.09-14-2.94l-232.32.25-6.73,12.73,238.43,0,.8-.15c4.5-.84,9.15-1.7,13.78-2.9l13.49-3.51Z"/><path class="cls-1" d="M574.51,523.67l-.37-.24-.29.33a49.82,49.82,0,0,1-6.34,6c-2.49,2-5.2,3.95-8.06,5.81s-5.86,3.7-8.89,5.45l-8.2,4.72c-.39-1.12-.86-2.33-1.38-3.6-.63-1.51-1.32-3.14-2.09-4.93a55.29,55.29,0,0,1-4.28-12.35c.18-.14.43-.36.78-.68.6-.56,1.33-1.31,2.16-2.23s1.74-2,2.66-3.17a26.44,26.44,0,0,0,2.56-4,3.73,3.73,0,0,0,.67-2.68,1.37,1.37,0,0,0-.69-.83,5.05,5.05,0,0,0-3.34-.24,21.1,21.1,0,0,0-4.25,1.35,10.41,10.41,0,0,0-3.08,1.78,6.91,6.91,0,0,0-2.18,5.19,25,25,0,0,0,.77,6.92c0,.1.06.19.08.29q-1.28,1.77-3.19,4.31-2.33,3.08-5.28,7c-2,2.63-4,5.31-6.21,8-3.67,4.66-6.85,8.5-9.46,11.4s-4.79,5.14-6.49,6.68a19.21,19.21,0,0,1-3.77,2.87,3.08,3.08,0,0,1-1,.34c-.35-.71-.25-1.91.29-3.5a47.72,47.72,0,0,1,2.67-6.15c1.16-2.27,2.54-4.76,4.13-7.38s3.14-5.17,4.64-7.6c2.92-4.75,5.24-8.64,6.92-11.57,1.82-3.19,2.29-5.2,1.48-6.32a2.65,2.65,0,0,0-2.29-1.09h-1.88c-2.07,0-4,0-5.62.13a24.2,24.2,0,0,1-3.34,0l1.9-3a50.67,50.67,0,0,0,3.1-5.76q.25-.5,1.07-2.27a19.83,19.83,0,0,0,1.29-3.67,7.19,7.19,0,0,0,.06-3.51c-.22-.83-.89-1.82-2.87-1.82-1.54,0-3.22.8-5,2.39a20.53,20.53,0,0,0-4.31,5.54,17.27,17.27,0,0,0-2.07,6.53,6.59,6.59,0,0,0,3.65,6.67c-2.86,2.7-5.37,5-7.44,6.89-2.41,2.16-5,4.39-7.77,6.64a79.87,79.87,0,0,1-7.26,5.38c-.83.58-2,1.33-3.55,2.24s-3.23,1.8-5.1,2.68a36,36,0,0,1-5.76,2.11,13,13,0,0,1-5.33.43,4.42,4.42,0,0,1-3.5-3,10.65,10.65,0,0,1,.08-6.78,29.61,29.61,0,0,1,4.51-8.83c1.32-1.9,2.6-3.57,3.8-5l.3-.35a41,41,0,0,0-2.09,4.3c-1.16,2.82-1.36,4.83-.59,6.16.33.55,1.16,1,2.63,1.36a6.79,6.79,0,0,0,3.22.25,12.08,12.08,0,0,0,3.08-1.57,19.42,19.42,0,0,0,3.42-3,27.16,27.16,0,0,0,3-3.9,16.62,16.62,0,0,0,2-4.46,6.74,6.74,0,0,0-.4-4.74,5.47,5.47,0,0,0-3.06-3.16,8.46,8.46,0,0,0-2.69-.21,11.88,11.88,0,0,0-4.47,1.3,29.75,29.75,0,0,0-5.88,4,41.38,41.38,0,0,0-7,7.94,31.25,31.25,0,0,0-2.82,4.72L448.66,538c-2.49,2.37-5,4.64-7.4,6.77s-4.67,4-6.69,5.5a16.56,16.56,0,0,1-4.69,2.75,1,1,0,0,1-.41.07,4.72,4.72,0,0,1-.19-1.36,6.72,6.72,0,0,1,.41-2,16.47,16.47,0,0,1,1.52-3.1c.74-1.23,1.74-2.69,3-4.35,1.75-2.33,3.18-4.4,4.23-6.13a31.61,31.61,0,0,0,2.36-4.53,10.81,10.81,0,0,0,.85-3.36,5.47,5.47,0,0,0-.34-2.39c-.83-2.38-2.44-2.76-3.65-2.66a12.66,12.66,0,0,0-5.3,2,42,42,0,0,0-6,4.45c-2,1.8-4,3.62-5.8,5.42L419,536.59q2.83-3.93,5.75-8.13c3.5-5,7.13-10.29,10.8-15.64,3.52-5.14,6.91-10.17,10.05-15s5.88-8.92,8.27-12.52c1.06-2.56,1.42-4.33,1.08-5.42-.08-.25-.31-1-1-1.18-.42-.11-.86.07-1.38.61q-1,1.51-3.9,6c-1.89,2.92-4.22,6.45-6.9,10.48s-5.57,8.33-8.67,12.94-6.2,9.16-9.17,13.43l-2.72,3.91c-1.29,1.42-3,3.25-5.08,5.45s-4.62,4.85-7.34,7.66-5.62,5.7-8.53,8.53a198.44,198.44,0,0,1-17.21,15.11,11.93,11.93,0,0,0-1.53,1.12,22.77,22.77,0,0,1-2.52,1.72,8,8,0,0,1-2.54,1c-.78.15-1-.17-1.13-.56a5.47,5.47,0,0,1,.38-3.49,43.85,43.85,0,0,1,2.85-6c1.67-2.92,3.71-6.21,6.07-9.77s4.92-7.41,7.6-11.43q3-4.52,6.28-9.35c2.17-3.21,4.26-6.45,6.23-9.63s3.83-6.35,5.54-9.44,3.06-5.79,4.22-8.4l6.25.24a62.09,62.09,0,0,0,6.27-.06,29.37,29.37,0,0,0,5.88-1,16.19,16.19,0,0,0,5.5-2.77.81.81,0,0,0,0-1.21l-.08-.06c-.59-.39-.94-.25-1.08-.11a15.07,15.07,0,0,1-5,2.43,28.41,28.41,0,0,1-5.68.92,48.53,48.53,0,0,1-6,0q-2.72-.17-5.38-.28a29.15,29.15,0,0,0,1.87-6.22l.09-.11-.05-.26c-.07-.32-.35-.49-.83-.69a7.17,7.17,0,0,0-1.62-.41c-.51-.08-2.06-.32-2.38.73a4.33,4.33,0,0,1-.19.55h0l-.1.1,0,.14a44.49,44.49,0,0,1-1.75,6,50.85,50.85,0,0,0-7,.63c-1.88.34-3.44.68-4.63,1a14.81,14.81,0,0,0-3.38,1.43h0c-.59.35-1.12.75-1.08,1.27a.72.72,0,0,0,.43.59,1.35,1.35,0,0,0,.91.33h.13l.12-.07a18,18,0,0,1,3.42-1.53,43.48,43.48,0,0,1,4.47-1.12,37.9,37.9,0,0,1,5.77-.65c-1.1,2.45-2.42,5.08-3.93,7.83-1.67,3.05-3.53,6.23-5.51,9.46-1.77,2.87-3.62,5.78-5.49,8.66a51.2,51.2,0,0,1-5.7,5.27c-2.49,2-5.2,3.95-8.06,5.81s-5.86,3.7-8.89,5.45l-8.2,4.72c-.39-1.12-.86-2.33-1.38-3.6-.63-1.51-1.32-3.14-2.09-4.93a55.29,55.29,0,0,1-4.28-12.35c.18-.14.43-.36.78-.68.6-.56,1.33-1.31,2.16-2.23s1.74-2,2.66-3.17a26.44,26.44,0,0,0,2.56-4,3.73,3.73,0,0,0,.67-2.68,1.37,1.37,0,0,0-.69-.83,5.05,5.05,0,0,0-3.34-.24,21.1,21.1,0,0,0-4.25,1.35,10.41,10.41,0,0,0-3.08,1.78,6.91,6.91,0,0,0-2.18,5.19,25,25,0,0,0,.77,6.92,60.58,60.58,0,0,0,2.15,7q1.26,3.34,2,5.23c.74,1.82,1.35,3.49,1.81,5s.81,2.62,1.19,3.77a74.06,74.06,0,0,0-8.37,5.49,38.71,38.71,0,0,0-5,4.58h0a5.21,5.21,0,0,0-1.62,4.11,5,5,0,0,0,1.74,3.13,8.54,8.54,0,0,0,3.53,1.74,10,10,0,0,0,2.43.3,9.68,9.68,0,0,0,1.79-.17,12.29,12.29,0,0,0,5.76-2.36,13.4,13.4,0,0,0,3.72-4.5,15.64,15.64,0,0,0,1.62-5.9,19.24,19.24,0,0,0-.55-6.2c2.75-1.58,5.51-3.14,8.21-4.64,2.93-1.63,5.84-3.37,8.63-5.17s5.58-3.76,8.2-5.8c.29-.22.56-.46.84-.69-.88,1.3-1.76,2.59-2.63,3.84-2.84,4.18-5.53,8.18-8,11.87s-4.5,7.07-6.05,10a32.55,32.55,0,0,0-3.06,7.34c-.51,2.14-.12,3.67,1.12,4.53a3.58,3.58,0,0,0,2.25.75,4.9,4.9,0,0,0,.92-.09,13.22,13.22,0,0,0,3.39-1.17,24.14,24.14,0,0,0,3.27-2c1-.75,1.94-1.37,2.71-1.89a177.26,177.26,0,0,0,17.51-15.37c4-3.82,7.94-7.77,11.76-11.76l.49-.52c-1.85,2.56-3.42,4.67-4.64,6.26a106.54,106.54,0,0,0-9.72,9.72c-1.18,1.34-2.35,2.77-3.47,4.23a8.21,8.21,0,0,0-1.93,3.63c0,.3.19.64,1.16,1.56a4.63,4.63,0,0,0,1.73,1.19H397a2.74,2.74,0,0,0,1.5-.73,24.66,24.66,0,0,0,2.78-2.84c1.88-2.23,3.74-4.47,5.53-6.67s3.66-4.63,5.35-7c1.18-1.09,2.56-2.47,4.23-4.23s3.33-3.47,5.08-5.27,3.55-3.53,5.32-5.13a47.82,47.82,0,0,1,5-4,12.94,12.94,0,0,1,4-2,1.73,1.73,0,0,1,2.14.8,3.58,3.58,0,0,1-.39,2.66,35.25,35.25,0,0,1-2.29,4.4c-1,1.59-1.91,3.06-2.81,4.37s-1.55,2.27-1.89,2.77a27.83,27.83,0,0,0-3,5.7,16.52,16.52,0,0,0-1,4.08,6.35,6.35,0,0,0,.29,2.8,6.79,6.79,0,0,0,.8,1.53,1.93,1.93,0,0,0,1.41.72,2.58,2.58,0,0,0,1.75-.3,48.13,48.13,0,0,0,8.44-6c3.05-2.63,6.12-5.43,9.13-8.31l.67-.65c-.09.36-.18.72-.25,1.07a13.93,13.93,0,0,0,.41,7.89,7.55,7.55,0,0,0,3.16,3.63,8.21,8.21,0,0,0,4.21,1.33,19.15,19.15,0,0,0,5.1-.77,36.07,36.07,0,0,0,5.48-2c1.83-.85,3.66-1.81,5.44-2.85s3.47-2.08,5-3.08a70.41,70.41,0,0,0,7.46-5.44c2.76-2.25,5.38-4.52,7.81-6.74,2.25-2.06,4.93-4.56,8.15-7.62a17.9,17.9,0,0,0,2.86.34c1.22,0,2.5,0,3.82-.06s2.53-.17,3.73-.27a.46.46,0,0,1,0,.23,6.3,6.3,0,0,1-.41,1.63,16,16,0,0,1-.85,1.89c-.34.63-.59,1.12-.75,1.44-.83,1.5-1.8,3.18-2.88,5s-2.26,3.77-3.51,5.77l-5,8.16c-1.63,2.67-3.05,5.22-4.23,7.57a36.29,36.29,0,0,0-2.55,6.31c-.54,1.95-.53,3.41.07,4.5a3.49,3.49,0,0,0,3,1.47c1.47,0,3.3-.94,5.6-2.88a73.18,73.18,0,0,0,6.64-6.45c2.22-2.43,4.34-4.91,6.3-7.37l4.46-5.59c2.17-2.75,4.26-5.48,6.23-8.11s3.71-5,5.21-7l2.39-3.25c.45,1.58.94,3.14,1.51,4.64q1.26,3.34,2,5.23c.74,1.82,1.35,3.49,1.81,5s.81,2.62,1.19,3.77a74.06,74.06,0,0,0-8.37,5.49,38.71,38.71,0,0,0-5,4.58h0a5.21,5.21,0,0,0-1.62,4.11,5,5,0,0,0,1.74,3.13,8.54,8.54,0,0,0,3.53,1.74,10,10,0,0,0,2.43.3,9.68,9.68,0,0,0,1.79-.17,12.29,12.29,0,0,0,5.76-2.36,13.4,13.4,0,0,0,3.72-4.5,15.64,15.64,0,0,0,1.62-5.9,19.24,19.24,0,0,0-.55-6.2c2.75-1.58,5.51-3.14,8.21-4.64,2.93-1.63,5.84-3.37,8.63-5.17s5.58-3.76,8.2-5.8a51.52,51.52,0,0,0,7.29-6.91l.31-.35-.33-.33A4.86,4.86,0,0,0,574.51,523.67ZM538.38,549a25.57,25.57,0,0,1,.75,4.67,11.5,11.5,0,0,1-.66,4.88,9.27,9.27,0,0,1-2.74,3.81,10.53,10.53,0,0,1-5.41,2.09,6.25,6.25,0,0,1-2.79-.17,5.54,5.54,0,0,1-2.25-1.2,2.46,2.46,0,0,1-.78-1.9,4.25,4.25,0,0,1,1.38-2.68,34.93,34.93,0,0,1,4.64-4.27A76.53,76.53,0,0,1,538.38,549Zm2.53-36.52a1.76,1.76,0,0,1,.86.19c0,.06.08.4-.5,1.41a28,28,0,0,1-2.28,3.58c-.86,1.15-1.7,2.19-2.49,3.11-.62.72-1.37,1.5-2.24,2.33a22.9,22.9,0,0,1-.28-5,4.76,4.76,0,0,1,1.15-3.24l0,0a7.61,7.61,0,0,1,1.94-1.16,13.7,13.7,0,0,1,2.84-1A4.53,4.53,0,0,1,540.91,512.45Zm-40.24,10.68c-.74-.7-1-1.83-.86-3.46a20.13,20.13,0,0,1,1.66-6.07,22.37,22.37,0,0,1,3.38-5.47c1.28-1.51,2.39-2.27,3.32-2.27h0a.77.77,0,0,1,.08.44,9.42,9.42,0,0,1-.36,2.26,25.28,25.28,0,0,1-1,3q-.63,1.56-1.12,2.68a52.66,52.66,0,0,1-3.17,5.91C501.77,521.52,501.11,522.54,500.67,523.14ZM474,524a14.18,14.18,0,0,1-1.76,3.87,31,31,0,0,1-3.28,4.46c-2.73,3.22-4.93,4.85-6.53,4.85a1.52,1.52,0,0,1-1.31-.6,4,4,0,0,1,.16-2.71,28.59,28.59,0,0,1,1.67-4.2c.7-1.44,1.48-2.87,2.3-4.23s1.44-2.31,1.94-3l.82-.58c2.17-1.55,3.86-2,5-1.46C473.79,520.75,474.71,521.51,474,524ZM401.7,552.86c-1.2,1.53-2.27,2.86-3.19,3.94s-1.45,1.68-1.92,2.19a43.73,43.73,0,0,1,3.13-4.06q1.25-1.48,2.8-3.12ZM359.65,549a25.57,25.57,0,0,1,.75,4.67,11.5,11.5,0,0,1-.66,4.88,9.27,9.27,0,0,1-2.74,3.81,10.53,10.53,0,0,1-5.41,2.09,6.24,6.24,0,0,1-2.79-.17,5.54,5.54,0,0,1-2.25-1.2,2.46,2.46,0,0,1-.78-1.9,4.25,4.25,0,0,1,1.38-2.68,34.93,34.93,0,0,1,4.64-4.27A76.53,76.53,0,0,1,359.65,549Zm2.53-36.52a1.76,1.76,0,0,1,.86.19c0,.06.08.4-.5,1.41a28,28,0,0,1-2.28,3.58c-.86,1.15-1.7,2.19-2.49,3.11-.62.72-1.37,1.5-2.24,2.33a22.9,22.9,0,0,1-.28-5,4.76,4.76,0,0,1,1.15-3.24l0,0a7.61,7.61,0,0,1,1.94-1.16,13.7,13.7,0,0,1,2.84-1A4.53,4.53,0,0,1,362.18,512.45Z"/><path class="cls-1" d="M628,404.86a2,2,0,1,0,0-4,2,2,0,1,0,0,4Z"/><path class="cls-1" d="M728.65,408.31l-.35.34c-3.44,3.27-6.39,6-8.78,8.16s-5,4.39-7.77,6.64a79.87,79.87,0,0,1-7.26,5.38c-.83.58-2,1.33-3.55,2.24s-3.23,1.8-5.1,2.68a36,36,0,0,1-5.76,2.11,13,13,0,0,1-5.33.43,4.42,4.42,0,0,1-3.5-3,10.65,10.65,0,0,1,.08-6.78,29.61,29.61,0,0,1,4.51-8.83c1.32-1.9,2.6-3.57,3.8-5l.3-.35a41,41,0,0,0-2.09,4.3c-1.16,2.82-1.36,4.83-.59,6.16.33.55,1.16,1,2.63,1.36a6.78,6.78,0,0,0,3.22.25,12.08,12.08,0,0,0,3.08-1.57,19.42,19.42,0,0,0,3.42-3,27.16,27.16,0,0,0,3-3.9,16.62,16.62,0,0,0,2-4.46,6.74,6.74,0,0,0-.4-4.74,5.47,5.47,0,0,0-3.06-3.16,8.34,8.34,0,0,0-2.69-.21,11.88,11.88,0,0,0-4.47,1.3,29.75,29.75,0,0,0-5.88,4,37.25,37.25,0,0,0-5.64,6.1l-.13.11c-2.49,2-5.2,3.95-8.06,5.81s-5.86,3.7-8.89,5.45l-8.2,4.72c-.39-1.12-.86-2.33-1.38-3.6-.63-1.51-1.32-3.14-2.09-4.93a55,55,0,0,1-4.2-12l.34-.34.45-.45-.2-.12.11-.1c.6-.56,1.33-1.31,2.16-2.23s1.74-2,2.66-3.17a26.44,26.44,0,0,0,2.56-4,3.73,3.73,0,0,0,.67-2.68,1.37,1.37,0,0,0-.69-.83,5,5,0,0,0-3.34-.24,21.1,21.1,0,0,0-4.25,1.35,10.41,10.41,0,0,0-3.08,1.78,6.91,6.91,0,0,0-2.18,5.19,25,25,0,0,0,.77,6.92c0,.15.08.29.12.44-.77.76-1.64,1.62-2.68,2.6-1.61,1.53-3.45,3.24-5.46,5.08s-4,3.55-6.06,5.12-4,2.94-5.74,4.05a11.77,11.77,0,0,1-4.4,1.88c-1.15.18-1.26-.33-1.32-.61a7.56,7.56,0,0,1,.25-3.11,25.09,25.09,0,0,1,1.66-4.55c.8-1.72,1.62-3.4,2.44-5s1.61-3.07,2.38-4.44l1.63-2.89.33-.57-.64-.16-1.58-.38-.55-.09-.75-.76v.72a1.22,1.22,0,0,0-.86.26l-.07.09c-.6.95-1.2,1.92-1.78,2.92s-1.07,1.95-1.69,3.07l-.29.55-.3.4q-2.33,3.08-5.28,7c-2,2.63-4,5.31-6.21,8-3.67,4.66-6.85,8.5-9.46,11.4s-4.79,5.14-6.49,6.68a19.21,19.21,0,0,1-3.77,2.87,3.08,3.08,0,0,1-1,.34c-.35-.71-.25-1.91.29-3.5a47.72,47.72,0,0,1,2.67-6.15c1.16-2.27,2.54-4.76,4.13-7.38s3.14-5.17,4.64-7.6c2.92-4.75,5.24-8.64,6.92-11.57,1.82-3.19,2.29-5.2,1.48-6.32a2.65,2.65,0,0,0-2.29-1.09h-1.88c-2.07,0-4,0-5.62.13a24.51,24.51,0,0,1-3.34,0l1.9-3a50.67,50.67,0,0,0,3.1-5.76q.25-.5,1.07-2.27a19.83,19.83,0,0,0,1.29-3.67,7.19,7.19,0,0,0,.06-3.51c-.22-.83-.89-1.82-2.87-1.82-1.54,0-3.22.8-5,2.39a20.53,20.53,0,0,0-4.31,5.54,17.27,17.27,0,0,0-2.07,6.53,6.58,6.58,0,0,0,4.9,7.13,17.58,17.58,0,0,0,3.49.45c1.22,0,2.5,0,3.82-.06s2.53-.17,3.73-.27a.46.46,0,0,1,0,.23,6.3,6.3,0,0,1-.41,1.63,16,16,0,0,1-.85,1.89c-.34.63-.59,1.12-.75,1.44-.83,1.5-1.8,3.18-2.88,5s-2.26,3.77-3.51,5.77l-5,8.16c-1.63,2.67-3.05,5.22-4.23,7.57A36.29,36.29,0,0,0,584,448.5c-.54,1.95-.53,3.41.07,4.5a3.49,3.49,0,0,0,3,1.47c1.47,0,3.3-.94,5.6-2.88a73.18,73.18,0,0,0,6.64-6.45c2.22-2.43,4.34-4.91,6.3-7.37l4.46-5.59c2.17-2.75,4.26-5.48,6.23-8.11l.35-.47a26.69,26.69,0,0,0-1.05,3.26,12.62,12.62,0,0,0-.39,4.64c.14,1.08.77,2.39,3,2.51h.06a13.39,13.39,0,0,0,5.16-1.62,48.12,48.12,0,0,0,5.9-3.62,68.33,68.33,0,0,0,6.07-4.87c2-1.76,3.92-3.54,5.78-5.28s3.5-3.33,5-4.84c.45,1.58.94,3.15,1.51,4.65q1.26,3.34,2,5.23c.74,1.82,1.35,3.49,1.81,5s.81,2.62,1.19,3.77a74.06,74.06,0,0,0-8.37,5.49,38.71,38.71,0,0,0-5,4.58h0a5.21,5.21,0,0,0-1.62,4.11,5,5,0,0,0,1.74,3.13,8.54,8.54,0,0,0,3.53,1.74,10,10,0,0,0,2.43.3,9.68,9.68,0,0,0,1.79-.17,12.29,12.29,0,0,0,5.76-2.36,13.4,13.4,0,0,0,3.72-4.5,15.64,15.64,0,0,0,1.62-5.9,19.24,19.24,0,0,0-.55-6.2c2.75-1.58,5.51-3.14,8.21-4.64,2.93-1.63,5.84-3.37,8.63-5.17,1.56-1,3.09-2.05,4.6-3.13a22,22,0,0,0-2.53,6.51,13.93,13.93,0,0,0,.41,7.89,7.55,7.55,0,0,0,3.16,3.63,8.21,8.21,0,0,0,4.21,1.33,19.15,19.15,0,0,0,5.1-.77,36.07,36.07,0,0,0,5.48-2c1.83-.85,3.66-1.81,5.44-2.85s3.47-2.08,5-3.08a70.41,70.41,0,0,0,7.46-5.44c2.76-2.25,5.38-4.52,7.81-6.74s5.28-4.89,8.8-8.23l.37-.35Zm-26.87.84A14.18,14.18,0,0,1,700,413a31,31,0,0,1-3.28,4.46c-2.73,3.22-4.93,4.85-6.53,4.85a1.52,1.52,0,0,1-1.31-.6A4,4,0,0,1,689,419a28.59,28.59,0,0,1,1.67-4.2c.7-1.44,1.48-2.87,2.3-4.23s1.44-2.31,1.94-3l.82-.58c2.17-1.55,3.86-2,5-1.46C701.54,405.92,702.46,406.67,701.77,409.14Zm-48.56,25a25.57,25.57,0,0,1,.75,4.67,11.5,11.5,0,0,1-.66,4.88,9.27,9.27,0,0,1-2.74,3.81,10.53,10.53,0,0,1-5.41,2.09,6.26,6.26,0,0,1-2.79-.17,5.54,5.54,0,0,1-2.25-1.2,2.46,2.46,0,0,1-.78-1.9,4.25,4.25,0,0,1,1.38-2.68,34.93,34.93,0,0,1,4.64-4.27A76.53,76.53,0,0,1,653.22,434.14Zm2.53-36.52a1.76,1.76,0,0,1,.86.19c0,.06.08.4-.5,1.41a28,28,0,0,1-2.28,3.58c-.86,1.15-1.7,2.19-2.49,3.11-.62.72-1.37,1.5-2.24,2.33a22.9,22.9,0,0,1-.28-5A4.76,4.76,0,0,1,650,400l0,0a7.61,7.61,0,0,1,1.94-1.16,13.7,13.7,0,0,1,2.84-1A4.53,4.53,0,0,1,655.75,397.62Zm-63.33,7.23a20.13,20.13,0,0,1,1.66-6.07,22.37,22.37,0,0,1,3.38-5.47c1.28-1.51,2.39-2.27,3.32-2.27h0a.77.77,0,0,1,.08.44,9.42,9.42,0,0,1-.36,2.26,25.28,25.28,0,0,1-1,3q-.63,1.56-1.12,2.68a52.66,52.66,0,0,1-3.17,5.91c-.88,1.41-1.55,2.42-2,3C592.53,407.61,592.25,406.47,592.41,404.85Z"/></svg>