<?xml version="1.0" encoding="UTF-8" standalone="no"?>
<!DOCTYPE svg PUBLIC "-//W3C//DTD SVG 1.1//EN" "http://www.w3.org/Graphics/SVG/1.1/DTD/svg11.dtd">
<svg width="100%" height="100%" viewBox="0 0 491 314" version="1.1" xmlns="http://www.w3.org/2000/svg" xmlns:xlink="http://www.w3.org/1999/xlink" xml:space="preserve" xmlns:serif="http://www.serif.com/" style="fill-rule:evenodd;clip-rule:evenodd;stroke-linejoin:round;stroke-miterlimit:2;">
    <g transform="matrix(0.75,0,0,0.75,0,0)">
        <g transform="matrix(1,0,0,1,-75.46,-165.79)">
            <path d="M202.06,306.4C202.06,336.7 221.42,365.32 249.61,365.32L261,365.32L260.16,368.69L253.4,368.69C194.06,368.69 154.08,436.44 154.08,494.94C154.08,539.13 168.39,578.26 222.68,578.26C295.48,578.26 339.68,516.4 339.68,468.85C339.68,441.08 322.43,416.67 285.39,416.67C264.39,416.67 248.39,431.4 248.39,454.54C248.39,473.06 261.01,486.1 278.69,486.54C281.64,512.21 257.69,531.54 233.69,531.54C203.81,531.54 186.98,512.6 186.98,488.62C186.98,442.75 241.69,413.29 285.45,413.29C333.84,413.29 356.15,441.48 356.15,474.29C356.15,523.11 306.91,583.29 208.86,583.29C116.7,583.29 75.46,530.29 75.46,476.82C75.46,421.27 124.27,369.51 229.9,368.67L230.32,367.83C165.51,366.57 128.48,338.37 128.48,299.66C128.48,240.33 215.17,225.6 258.48,225.6C310.66,225.6 354.85,247.06 354.85,289.14C354.85,322.39 327.5,343.43 303.09,343.43C282.09,343.43 258.9,326.18 265.22,300.93C280.37,297.56 294.22,287.46 294.22,266C294.22,244.12 279.91,229.39 259.29,229.39C223.1,229.39 202.06,274.84 202.06,306.4Z" style="fill:rgb(43,31,91);fill-rule:nonzero;"/>
        </g>
        <g transform="matrix(1,0,0,1,-75.46,-165.79)">
            <path d="M453.95,362L541.95,362L481.24,165.79C438.96,262.47 395.24,367.66 346.99,434.79L350.04,439.28C363.45,421.37 376.35,400.62 388.97,377.56L396.81,362.56L396.87,362.56C408.95,339.56 420.73,314.37 432.87,287.36L453.95,362Z" style="fill:rgb(43,31,91);fill-rule:nonzero;"/>
        </g>
        <g transform="matrix(1,0,0,1,-75.46,-165.79)">
            <path d="M553.62,399.76L542,362.05L454,362.05L454.16,362.61L456.82,372L465.66,403.56C475.76,439.33 474.92,471.73 436.2,471.73L435.78,474.68L610.43,474.68L610.85,471.73C581.82,471.72 569.19,449.42 553.62,399.76Z" style="fill:rgb(43,31,91);fill-rule:nonzero;"/>
        </g>
        <g transform="matrix(1,0,0,1,-75.46,-165.79)">
            <path d="M370.69,349L369.4,351.43C367.433,355.117 365.467,358.737 363.5,362.29L349.5,362.29C347.029,356.083 340.991,351.988 334.31,351.988C325.34,351.988 317.96,359.369 317.96,368.338C317.96,377.308 325.34,384.688 334.31,384.688C340.613,384.688 346.377,381.044 349.08,375.35L356.13,375.35C355.057,377.223 353.987,379.07 352.92,380.89L348.87,387.81L366,387.81L367.32,385.53C370.26,380.53 373.15,375.41 375.95,370.32L387.07,349L370.69,349Z" style="fill:rgb(211,179,42);fill-rule:nonzero;"/>
        </g>
        <g transform="matrix(1,0,0,1,-75.46,-165.79)">
            <path d="M643.12,365.29C638.43,364.07 633.72,363.2 629.12,362.35L396.8,362.6L390.07,375.33L628.5,375.33L629.3,375.18C633.8,374.34 638.45,373.48 643.08,372.28L656.57,368.77L643.12,365.29Z" style="fill:rgb(211,179,42);fill-rule:nonzero;"/>
        </g>
        <g transform="matrix(1,0,0,1,-75.46,-165.79)">
            <path d="M574.51,523.67L574.14,523.43L573.85,523.76C571.916,525.942 569.795,527.949 567.51,529.76C565.02,531.76 562.31,533.71 559.45,535.57C556.59,537.43 553.59,539.27 550.56,541.02L542.36,545.74C541.97,544.62 541.5,543.41 540.98,542.14C540.35,540.63 539.66,539 538.89,537.21C536.98,533.277 535.543,529.131 534.61,524.86C534.79,524.72 535.04,524.5 535.39,524.18C535.99,523.62 536.72,522.87 537.55,521.95C538.38,521.03 539.29,519.95 540.21,518.78C541.182,517.526 542.038,516.187 542.77,514.78C543.328,514.006 543.568,513.046 543.44,512.1C543.333,511.741 543.084,511.441 542.75,511.27C541.697,510.813 540.518,510.728 539.41,511.03C537.95,511.329 536.525,511.781 535.16,512.38C534.039,512.792 532.997,513.394 532.08,514.16C530.65,515.502 529.857,517.39 529.9,519.35C529.833,521.681 530.092,524.011 530.67,526.27C530.67,526.37 530.73,526.46 530.75,526.56C529.897,527.74 528.833,529.177 527.56,530.87C526.007,532.923 524.247,535.257 522.28,537.87C520.28,540.5 518.28,543.18 516.07,545.87C512.4,550.53 509.22,554.37 506.61,557.27C504,560.17 501.82,562.41 500.12,563.95C498.987,565.059 497.72,566.023 496.35,566.82C496.039,566.99 495.7,567.105 495.35,567.16C495,566.45 495.1,565.25 495.64,563.66C496.385,561.55 497.277,559.495 498.31,557.51C499.47,555.24 500.85,552.75 502.44,550.13C504.03,547.51 505.58,544.96 507.08,542.53C510,537.78 512.32,533.89 514,530.96C515.82,527.77 516.29,525.76 515.48,524.64C514.952,523.912 514.088,523.501 513.19,523.55L511.31,523.55C509.24,523.55 507.31,523.55 505.69,523.68C504.578,523.757 503.462,523.757 502.35,523.68L504.25,520.68C505.406,518.829 506.442,516.905 507.35,514.92C507.517,514.587 507.873,513.83 508.42,512.65C508.969,511.472 509.401,510.243 509.71,508.98C510.02,507.833 510.04,506.627 509.77,505.47C509.55,504.64 508.88,503.65 506.9,503.65C505.36,503.65 503.68,504.45 501.9,506.04C500.156,507.626 498.698,509.5 497.59,511.58C496.471,513.597 495.767,515.817 495.52,518.11C495.203,520.875 496.67,523.556 499.17,524.78C496.31,527.48 493.8,529.78 491.73,531.67C489.32,533.83 486.73,536.06 483.96,538.31C481.643,540.239 479.22,542.035 476.7,543.69C475.87,544.27 474.7,545.02 473.15,545.93C471.6,546.84 469.92,547.73 468.05,548.61C466.194,549.476 464.267,550.182 462.29,550.72C460.562,551.231 458.747,551.378 456.96,551.15C455.325,550.886 453.971,549.725 453.46,548.15C452.747,545.942 452.776,543.561 453.54,541.37C454.536,538.194 456.061,535.209 458.05,532.54C459.37,530.64 460.65,528.97 461.85,527.54L462.15,527.19C461.37,528.581 460.672,530.017 460.06,531.49C458.9,534.31 458.7,536.32 459.47,537.65C459.8,538.2 460.63,538.65 462.1,539.01C463.138,539.351 464.242,539.437 465.32,539.26C466.417,538.887 467.454,538.358 468.4,537.69C469.654,536.827 470.801,535.821 471.82,534.69C472.936,533.483 473.94,532.178 474.82,530.79C475.703,529.41 476.377,527.907 476.82,526.33C477.267,524.754 477.125,523.068 476.42,521.59C475.887,520.156 474.777,519.008 473.36,518.43C472.48,518.217 471.572,518.146 470.67,518.22C469.109,518.354 467.59,518.796 466.2,519.52C464.087,520.613 462.113,521.956 460.32,523.52C457.656,525.856 455.304,528.525 453.32,531.46C452.243,532.947 451.299,534.527 450.5,536.18L448.66,538C446.17,540.37 443.66,542.64 441.26,544.77C438.86,546.9 436.59,548.77 434.57,550.27C433.169,551.439 431.584,552.368 429.88,553.02C429.75,553.072 429.61,553.096 429.47,553.09C429.341,552.648 429.277,552.19 429.28,551.73C429.314,551.046 429.452,550.372 429.69,549.73C430.087,548.646 430.596,547.607 431.21,546.63C431.95,545.4 432.95,543.94 434.21,542.28C435.96,539.95 437.39,537.88 438.44,536.15C439.348,534.706 440.137,533.191 440.8,531.62C441.262,530.553 441.549,529.418 441.65,528.26C441.716,527.448 441.6,526.631 441.31,525.87C440.48,523.49 438.87,523.11 437.66,523.21C435.765,523.468 433.953,524.152 432.36,525.21C430.232,526.512 428.224,528.001 426.36,529.66C424.36,531.46 422.36,533.28 420.56,535.08L419,536.59C420.887,533.97 422.803,531.26 424.75,528.46C428.25,523.46 431.88,518.17 435.55,512.82C439.07,507.68 442.46,502.65 445.6,497.82C448.74,492.99 451.48,488.9 453.87,485.3C454.93,482.74 455.29,480.97 454.95,479.88C454.87,479.63 454.64,478.88 453.95,478.7C453.53,478.59 453.09,478.77 452.57,479.31C451.903,480.317 450.603,482.317 448.67,485.31C446.78,488.23 444.45,491.76 441.77,495.79C439.09,499.82 436.2,504.12 433.1,508.73C430,513.34 426.9,517.89 423.93,522.16L421.21,526.07C419.92,527.49 418.21,529.32 416.13,531.52C414.05,533.72 411.51,536.37 408.79,539.18C406.07,541.99 403.17,544.88 400.26,547.71C394.819,553.074 389.073,558.119 383.05,562.82C382.511,563.152 381.999,563.527 381.52,563.94C380.719,564.569 379.878,565.144 379,565.66C378.217,566.136 377.358,566.475 376.46,566.66C375.68,566.81 375.46,566.49 375.33,566.1C375.07,564.927 375.203,563.7 375.71,562.61C376.507,560.541 377.46,558.535 378.56,556.61C380.23,553.69 382.27,550.4 384.63,546.84C386.99,543.28 389.55,539.43 392.23,535.41C394.23,532.397 396.323,529.28 398.51,526.06C400.68,522.85 402.77,519.61 404.74,516.43C406.71,513.25 408.57,510.08 410.28,506.99C411.99,503.9 413.34,501.2 414.5,498.59L420.75,498.83C422.84,498.916 424.932,498.896 427.02,498.77C429.009,498.637 430.979,498.302 432.9,497.77C434.894,497.207 436.761,496.267 438.4,495C438.573,494.846 438.671,494.626 438.671,494.395C438.671,494.164 438.573,493.944 438.4,493.79L438.32,493.73C437.73,493.34 437.38,493.48 437.24,493.62C435.738,494.733 434.043,495.557 432.24,496.05C430.383,496.548 428.48,496.856 426.56,496.97C424.562,497.094 422.558,497.094 420.56,496.97C418.747,496.857 416.953,496.763 415.18,496.69C416.033,494.693 416.66,492.607 417.05,490.47L417.14,490.36L417.09,490.1C417.02,489.78 416.74,489.61 416.26,489.41C415.738,489.211 415.194,489.073 414.64,489C414.13,488.92 412.58,488.68 412.26,489.73C412.209,489.917 412.146,490.101 412.07,490.28L411.97,490.38L411.97,490.52C411.528,492.559 410.943,494.563 410.22,496.52C407.875,496.568 405.536,496.779 403.22,497.15C401.34,497.49 399.78,497.83 398.59,498.15C397.408,498.485 396.273,498.965 395.21,499.58C394.62,499.93 394.09,500.33 394.13,500.85C394.156,501.11 394.321,501.336 394.56,501.44C394.812,501.659 395.136,501.776 395.47,501.77L395.6,501.77L395.72,501.7C396.804,501.072 397.95,500.56 399.14,500.17C400.609,499.718 402.101,499.344 403.61,499.05C405.514,498.686 407.443,498.469 409.38,498.4C408.28,500.85 406.96,503.48 405.45,506.23C403.78,509.28 401.92,512.46 399.94,515.69C398.17,518.56 396.32,521.47 394.45,524.35C392.686,526.248 390.781,528.01 388.75,529.62C386.26,531.62 383.55,533.57 380.69,535.43C377.83,537.29 374.83,539.13 371.8,540.88L363.6,545.6C363.21,544.48 362.74,543.27 362.22,542C361.59,540.49 360.9,538.86 360.13,537.07C358.22,533.137 356.783,528.991 355.85,524.72C356.03,524.58 356.28,524.36 356.63,524.04C357.23,523.48 357.96,522.73 358.79,521.81C359.62,520.89 360.53,519.81 361.45,518.64C362.422,517.386 363.278,516.047 364.01,514.64C364.568,513.866 364.808,512.906 364.68,511.96C364.573,511.601 364.324,511.301 363.99,511.13C362.937,510.673 361.758,510.588 360.65,510.89C359.19,511.189 357.765,511.641 356.4,512.24C355.279,512.652 354.237,513.254 353.32,514.02C351.89,515.362 351.097,517.25 351.14,519.21C351.073,521.541 351.332,523.871 351.91,526.13C352.485,528.505 353.203,530.842 354.06,533.13C354.9,535.357 355.567,537.1 356.06,538.36C356.8,540.18 357.41,541.85 357.87,543.36C358.33,544.87 358.68,545.98 359.06,547.13C356.149,548.769 353.353,550.603 350.69,552.62C348.893,553.997 347.219,555.53 345.69,557.2C344.568,558.261 343.974,559.768 344.07,561.31C344.244,562.532 344.864,563.648 345.81,564.44C346.835,565.287 348.044,565.883 349.34,566.18C350.135,566.379 350.951,566.48 351.77,566.48C352.371,566.479 352.97,566.422 353.56,566.31C355.651,566.031 357.634,565.218 359.32,563.95C360.876,562.742 362.146,561.205 363.04,559.45C363.963,557.609 364.514,555.604 364.66,553.55C364.814,551.467 364.629,549.373 364.11,547.35C366.86,545.77 369.62,544.21 372.32,542.71C375.25,541.08 378.16,539.34 380.95,537.54C383.74,535.74 386.53,533.78 389.15,531.74C389.44,531.52 389.71,531.28 389.99,531.05C389.11,532.35 388.23,533.64 387.36,534.89C384.52,539.07 381.83,543.07 379.36,546.76C376.89,550.45 374.86,553.83 373.31,556.76C371.994,559.072 370.966,561.537 370.25,564.1C369.74,566.24 370.13,567.77 371.37,568.63C372.013,569.128 372.807,569.393 373.62,569.38C373.929,569.379 374.237,569.349 374.54,569.29C375.718,569.056 376.858,568.662 377.93,568.12C379.071,567.541 380.165,566.872 381.2,566.12C382.2,565.37 383.14,564.75 383.91,564.23C390.077,559.496 395.927,554.362 401.42,548.86C405.42,545.04 409.36,541.09 413.18,537.1L413.67,536.58C411.82,539.14 410.25,541.25 409.03,542.84C405.584,545.867 402.337,549.114 399.31,552.56C398.13,553.9 396.96,555.33 395.84,556.79C394.899,557.817 394.235,559.066 393.91,560.42C393.91,560.72 394.1,561.06 395.07,561.98C395.548,562.504 396.14,562.911 396.8,563.17L397,563.17C397.564,563.089 398.088,562.833 398.5,562.44C399.502,561.57 400.431,560.62 401.28,559.6C403.16,557.37 405.02,555.13 406.81,552.93C408.6,550.73 410.47,548.3 412.16,545.93C413.34,544.84 414.72,543.46 416.39,541.7C418.06,539.94 419.72,538.23 421.47,536.43C423.22,534.63 425.02,532.9 426.79,531.3C428.365,529.856 430.036,528.52 431.79,527.3C432.997,526.406 434.351,525.729 435.79,525.3C436.599,524.992 437.521,525.337 437.93,526.1C438.15,527.003 438.01,527.958 437.54,528.76C436.881,530.279 436.116,531.749 435.25,533.16C434.25,534.75 433.34,536.22 432.44,537.53C431.54,538.84 430.89,539.8 430.55,540.3C429.333,542.077 428.326,543.99 427.55,546C427.044,547.312 426.708,548.683 426.55,550.08C426.436,551.023 426.535,551.98 426.84,552.88C427.04,553.422 427.309,553.936 427.64,554.41C427.985,554.84 428.499,555.103 429.05,555.13C429.65,555.24 430.271,555.134 430.8,554.83C433.821,553.139 436.651,551.128 439.24,548.83C442.29,546.2 445.36,543.4 448.37,540.52L449.04,539.87C448.95,540.23 448.86,540.59 448.79,540.94C448.162,543.554 448.305,546.295 449.2,548.83C449.829,550.352 450.939,551.627 452.36,552.46C453.615,553.279 455.072,553.739 456.57,553.79C458.297,553.764 460.013,553.505 461.67,553.02C463.548,552.502 465.38,551.834 467.15,551.02C468.98,550.17 470.81,549.21 472.59,548.17C474.37,547.13 476.06,546.09 477.59,545.09C480.193,543.442 482.685,541.625 485.05,539.65C487.81,537.4 490.43,535.13 492.86,532.91C495.11,530.85 497.79,528.35 501.01,525.29C501.953,525.48 502.909,525.594 503.87,525.63C505.09,525.63 506.37,525.63 507.69,525.57C509.01,525.51 510.22,525.4 511.42,525.3C511.439,525.375 511.439,525.455 511.42,525.53C511.357,526.089 511.219,526.637 511.01,527.16C510.768,527.808 510.484,528.439 510.16,529.05C509.82,529.68 509.57,530.17 509.41,530.49C508.58,531.99 507.61,533.67 506.53,535.49C505.45,537.31 504.27,539.26 503.02,541.26L498.02,549.42C496.39,552.09 494.97,554.64 493.79,556.99C492.744,559.009 491.89,561.121 491.24,563.3C490.7,565.25 490.71,566.71 491.31,567.8C491.995,568.767 493.126,569.321 494.31,569.27C495.78,569.27 497.61,568.33 499.91,566.39C502.257,564.382 504.475,562.228 506.55,559.94C508.77,557.51 510.89,555.03 512.85,552.57L517.31,546.98C519.48,544.23 521.57,541.5 523.54,538.87C525.51,536.24 527.25,533.87 528.75,531.87L531.14,528.62C531.59,530.2 532.08,531.76 532.65,533.26C533.49,535.487 534.157,537.23 534.65,538.49C535.39,540.31 536,541.98 536.46,543.49C536.92,545 537.27,546.11 537.65,547.26C534.739,548.899 531.943,550.733 529.28,552.75C527.483,554.127 525.809,555.66 524.28,557.33C523.158,558.391 522.564,559.898 522.66,561.44C522.834,562.662 523.454,563.778 524.4,564.57C525.425,565.417 526.634,566.013 527.93,566.31C528.725,566.509 529.541,566.61 530.36,566.61C530.961,566.609 531.56,566.552 532.15,566.44C534.241,566.161 536.224,565.348 537.91,564.08C539.466,562.872 540.736,561.335 541.63,559.58C542.553,557.739 543.104,555.734 543.25,553.68C543.404,551.597 543.219,549.503 542.7,547.48C545.45,545.9 548.21,544.34 550.91,542.84C553.84,541.21 556.75,539.47 559.54,537.67C562.33,535.87 565.12,533.91 567.74,531.87C570.389,529.81 572.831,527.495 575.03,524.96L575.34,524.61L575.01,524.28C574.86,524.063 574.693,523.859 574.51,523.67ZM538.38,549C538.774,550.53 539.025,552.094 539.13,553.67C539.265,555.325 539.04,556.99 538.47,558.55C537.899,560.034 536.955,561.346 535.73,562.36C534.158,563.549 532.283,564.273 530.32,564.45C529.389,564.605 528.435,564.547 527.53,564.28C526.697,564.06 525.926,563.649 525.28,563.08C524.756,562.591 524.471,561.896 524.5,561.18C524.617,560.148 525.108,559.195 525.88,558.5C527.295,556.94 528.848,555.511 530.52,554.23C533.03,552.327 535.655,550.58 538.38,549ZM540.91,512.48C541.208,512.469 541.504,512.535 541.77,512.67C541.77,512.73 541.85,513.07 541.27,514.08C540.602,515.329 539.839,516.526 538.99,517.66C538.13,518.81 537.29,519.85 536.5,520.77C535.88,521.49 535.13,522.27 534.26,523.1C533.984,521.449 533.89,519.772 533.98,518.1C533.946,516.915 534.357,515.759 535.13,514.86C535.715,514.379 536.369,513.988 537.07,513.7C537.977,513.263 538.929,512.928 539.91,512.7C540.233,512.579 540.568,512.495 540.91,512.45L540.91,512.48ZM500.67,523.16C499.93,522.46 499.67,521.33 499.81,519.7C500.042,517.602 500.602,515.554 501.47,513.63C502.327,511.653 503.466,509.811 504.85,508.16C506.13,506.65 507.24,505.89 508.17,505.89C508.24,506.026 508.267,506.179 508.25,506.33C508.222,507.095 508.101,507.854 507.89,508.59C507.62,509.61 507.286,510.612 506.89,511.59C506.47,512.63 506.097,513.523 505.77,514.27C504.84,516.305 503.781,518.279 502.6,520.18C501.77,521.52 501.11,522.54 500.67,523.14L500.67,523.16ZM474,524C473.611,525.371 473.018,526.676 472.24,527.87C471.282,529.452 470.184,530.944 468.96,532.33C466.23,535.55 464.03,537.18 462.43,537.18C461.921,537.213 461.428,536.987 461.12,536.58C460.856,535.686 460.912,534.727 461.28,533.87C461.725,532.428 462.283,531.024 462.95,529.67C463.65,528.23 464.43,526.8 465.25,525.44C466.07,524.08 466.69,523.13 467.19,522.44L468.01,521.86C470.18,520.31 471.87,519.86 473.01,520.4C473.79,520.75 474.71,521.51 474,524ZM401.7,552.86C400.5,554.39 399.43,555.72 398.51,556.8C397.59,557.88 397.06,558.48 396.59,558.99C397.553,557.577 398.598,556.221 399.72,554.93C400.553,553.943 401.487,552.903 402.52,551.81L401.7,552.86ZM359.65,549C360.044,550.53 360.295,552.094 360.4,553.67C360.535,555.325 360.31,556.99 359.74,558.55C359.169,560.034 358.225,561.346 357,562.36C355.428,563.549 353.553,564.273 351.59,564.45C350.659,564.605 349.705,564.547 348.8,564.28C347.967,564.06 347.196,563.649 346.55,563.08C346.026,562.591 345.741,561.896 345.77,561.18C345.887,560.148 346.378,559.195 347.15,558.5C348.565,556.94 350.118,555.511 351.79,554.23C354.3,552.327 356.925,550.58 359.65,549ZM362.18,512.48C362.478,512.469 362.774,512.535 363.04,512.67C363.04,512.73 363.12,513.07 362.54,514.08C361.872,515.329 361.109,516.526 360.26,517.66C359.4,518.81 358.56,519.85 357.77,520.77C357.15,521.49 356.4,522.27 355.53,523.1C355.254,521.449 355.16,519.772 355.25,518.1C355.216,516.915 355.627,515.759 356.4,514.86C356.985,514.379 357.639,513.988 358.34,513.7C359.247,513.263 360.199,512.928 361.18,512.7C361.503,512.579 361.838,512.495 362.18,512.45L362.18,512.48Z" style="fill:rgb(43,31,91);fill-rule:nonzero;"/>
        </g>
        <g transform="matrix(1,0,0,1,-75.46,-165.79)">
            <path d="M628,404.86C629.097,404.86 630,403.957 630,402.86C630,401.763 629.097,400.86 628,400.86C626.903,400.86 626,401.763 626,402.86C626,403.957 626.903,404.86 628,404.86Z" style="fill:rgb(43,31,91);fill-rule:nonzero;"/>
        </g>
        <g transform="matrix(1,0,0,1,-75.46,-165.79)">
            <path d="M728.65,408.31L728.3,408.65C724.86,411.92 721.91,414.65 719.52,416.81C717.13,418.97 714.52,421.2 711.75,423.45C709.433,425.379 707.01,427.175 704.49,428.83C703.66,429.41 702.49,430.16 700.94,431.07C699.39,431.98 697.71,432.87 695.84,433.75C693.984,434.616 692.057,435.322 690.08,435.86C688.352,436.371 686.537,436.518 684.75,436.29C683.115,436.026 681.761,434.865 681.25,433.29C680.537,431.082 680.566,428.701 681.33,426.51C682.326,423.334 683.851,420.349 685.84,417.68C687.16,415.78 688.44,414.11 689.64,412.68L689.94,412.33C689.16,413.721 688.462,415.157 687.85,416.63C686.69,419.45 686.49,421.46 687.26,422.79C687.59,423.34 688.42,423.79 689.89,424.15C690.927,424.491 692.032,424.577 693.11,424.4C694.207,424.027 695.244,423.498 696.19,422.83C697.444,421.967 698.591,420.961 699.61,419.83C700.726,418.623 701.73,417.318 702.61,415.93C703.493,414.55 704.167,413.047 704.61,411.47C705.057,409.894 704.915,408.208 704.21,406.73C703.677,405.296 702.567,404.148 701.15,403.57C700.271,403.354 699.362,403.284 698.46,403.36C696.899,403.494 695.38,403.936 693.99,404.66C691.877,405.753 689.903,407.096 688.11,408.66C686.008,410.477 684.117,412.523 682.47,414.76L682.34,414.87C679.85,416.87 677.14,418.82 674.28,420.68C671.42,422.54 668.42,424.38 665.39,426.13L657.19,430.85C656.8,429.73 656.33,428.52 655.81,427.25C655.18,425.74 654.49,424.11 653.72,422.32C651.861,418.496 650.451,414.469 649.52,410.32L649.86,409.98L650.31,409.53L650.11,409.41L650.22,409.31C650.82,408.75 651.55,408 652.38,407.08C653.21,406.16 654.12,405.08 655.04,403.91C656.012,402.656 656.868,401.317 657.6,399.91C658.158,399.136 658.398,398.176 658.27,397.23C658.163,396.871 657.914,396.571 657.58,396.4C656.528,395.939 655.348,395.854 654.24,396.16C652.78,396.459 651.355,396.911 649.99,397.51C648.869,397.922 647.827,398.524 646.91,399.29C645.48,400.632 644.687,402.52 644.73,404.48C644.663,406.811 644.922,409.141 645.5,411.4C645.5,411.55 645.58,411.69 645.62,411.84C644.85,412.6 643.98,413.46 642.94,414.44C641.33,415.97 639.49,417.68 637.48,419.52C635.47,421.36 633.48,423.07 631.42,424.64C629.36,426.21 627.42,427.58 625.68,428.69C624.358,429.611 622.86,430.251 621.28,430.57C620.13,430.75 620.02,430.24 619.96,429.96C619.826,428.917 619.911,427.858 620.21,426.85C620.615,425.283 621.171,423.76 621.87,422.3C622.67,420.58 623.49,418.9 624.31,417.3C625.13,415.7 625.92,414.23 626.69,412.86L628.32,409.97L628.65,409.4L628.01,409.24L626.43,408.86L625.88,408.77L625.13,408.01L625.13,408.73C624.821,408.704 624.513,408.797 624.27,408.99L624.2,409.08C623.6,410.03 623,411 622.42,412C621.84,413 621.35,413.95 620.73,415.07L620.44,415.62L620.14,416.02C618.587,418.073 616.827,420.407 614.86,423.02C612.86,425.65 610.86,428.33 608.65,431.02C604.98,435.68 601.8,439.52 599.19,442.42C596.58,445.32 594.4,447.56 592.7,449.1C591.567,450.209 590.3,451.173 588.93,451.97C588.619,452.14 588.28,452.255 587.93,452.31C587.58,451.6 587.68,450.4 588.22,448.81C588.965,446.7 589.857,444.645 590.89,442.66C592.05,440.39 593.43,437.9 595.02,435.28C596.61,432.66 598.16,430.11 599.66,427.68C602.58,422.93 604.9,419.04 606.58,416.11C608.4,412.92 608.87,410.91 608.06,409.79C607.532,409.062 606.668,408.651 605.77,408.7L603.89,408.7C601.82,408.7 599.89,408.7 598.27,408.83C597.158,408.906 596.042,408.906 594.93,408.83L596.83,405.83C597.986,403.979 599.022,402.055 599.93,400.07C600.097,399.737 600.453,398.98 601,397.8C601.549,396.622 601.981,395.393 602.29,394.13C602.6,392.983 602.62,391.777 602.35,390.62C602.13,389.79 601.46,388.8 599.48,388.8C597.94,388.8 596.26,389.6 594.48,391.19C592.736,392.776 591.278,394.65 590.17,396.73C589.051,398.747 588.347,400.967 588.1,403.26C587.723,406.512 589.829,409.576 593,410.39C594.145,410.656 595.315,410.807 596.49,410.84C597.71,410.84 598.99,410.84 600.31,410.78C601.63,410.72 602.84,410.61 604.04,410.51C604.059,410.585 604.059,410.665 604.04,410.74C603.977,411.299 603.839,411.847 603.63,412.37C603.388,413.018 603.104,413.649 602.78,414.26C602.44,414.89 602.19,415.38 602.03,415.7C601.2,417.2 600.23,418.88 599.15,420.7C598.07,422.52 596.89,424.47 595.64,426.47L590.64,434.63C589.01,437.3 587.59,439.85 586.41,442.2C585.413,444.221 584.606,446.33 584,448.5C583.46,450.45 583.47,451.91 584.07,453C584.755,453.967 585.886,454.521 587.07,454.47C588.54,454.47 590.37,453.53 592.67,451.59C595.017,449.582 597.235,447.428 599.31,445.14C601.53,442.71 603.65,440.23 605.61,437.77L610.07,432.18C612.24,429.43 614.33,426.7 616.3,424.07L616.65,423.6C616.231,424.663 615.88,425.752 615.6,426.86C615.183,428.369 615.051,429.943 615.21,431.5C615.35,432.58 615.98,433.89 618.21,434.01L618.27,434.01C620.082,433.827 621.838,433.275 623.43,432.39C625.481,431.327 627.453,430.117 629.33,428.77C631.444,427.263 633.471,425.637 635.4,423.9C637.4,422.14 639.32,420.36 641.18,418.62C643.04,416.88 644.68,415.29 646.18,413.78C646.63,415.36 647.12,416.93 647.69,418.43C648.53,420.657 649.197,422.4 649.69,423.66C650.43,425.48 651.04,427.15 651.5,428.66C651.96,430.17 652.31,431.28 652.69,432.43C649.779,434.069 646.983,435.903 644.32,437.92C642.523,439.297 640.849,440.83 639.32,442.5C638.198,443.561 637.604,445.068 637.7,446.61C637.874,447.832 638.494,448.948 639.44,449.74C640.465,450.587 641.674,451.183 642.97,451.48C643.765,451.679 644.581,451.78 645.4,451.78C646.001,451.779 646.6,451.722 647.19,451.61C649.281,451.331 651.264,450.518 652.95,449.25C654.506,448.042 655.776,446.505 656.67,444.75C657.593,442.909 658.144,440.904 658.29,438.85C658.444,436.767 658.259,434.673 657.74,432.65C660.49,431.07 663.25,429.51 665.95,428.01C668.88,426.38 671.79,424.64 674.58,422.84C676.14,421.84 677.67,420.79 679.18,419.71C677.995,421.731 677.141,423.929 676.65,426.22C676.022,428.834 676.165,431.575 677.06,434.11C677.689,435.632 678.799,436.907 680.22,437.74C681.475,438.559 682.932,439.019 684.43,439.07C686.157,439.044 687.873,438.785 689.53,438.3C691.408,437.782 693.24,437.114 695.01,436.3C696.84,435.45 698.67,434.49 700.45,433.45C702.23,432.41 703.92,431.37 705.45,430.37C708.053,428.722 710.545,426.905 712.91,424.93C715.67,422.68 718.29,420.41 720.72,418.19C723.15,415.97 726,413.3 729.52,409.96L729.89,409.61L728.65,408.31ZM701.78,409.15C701.383,410.515 700.783,411.813 700,413C699.042,414.582 697.944,416.074 696.72,417.46C693.99,420.68 691.79,422.31 690.19,422.31C689.681,422.343 689.188,422.117 688.88,421.71C688.603,420.82 688.646,419.862 689,419C689.445,417.558 690.003,416.154 690.67,414.8C691.37,413.36 692.15,411.93 692.97,410.57C693.79,409.21 694.41,408.26 694.91,407.57L695.73,406.99C697.9,405.44 699.59,404.99 700.73,405.53C701.54,405.92 702.46,406.67 701.77,409.14L701.78,409.15ZM653.22,434.15C653.614,435.68 653.865,437.244 653.97,438.82C654.105,440.475 653.88,442.14 653.31,443.7C652.739,445.184 651.795,446.496 650.57,447.51C648.998,448.699 647.123,449.423 645.16,449.6C644.229,449.754 643.275,449.696 642.37,449.43C641.537,449.21 640.766,448.799 640.12,448.23C639.596,447.741 639.311,447.046 639.34,446.33C639.457,445.298 639.948,444.345 640.72,443.65C642.135,442.09 643.688,440.661 645.36,439.38C647.87,437.473 650.495,435.723 653.22,434.14L653.22,434.15ZM655.75,397.63C656.048,397.619 656.344,397.685 656.61,397.82C656.61,397.88 656.69,398.22 656.11,399.23C655.442,400.479 654.679,401.676 653.83,402.81C652.97,403.96 652.13,405 651.34,405.92C650.72,406.64 649.97,407.42 649.1,408.25C648.824,406.599 648.73,404.922 648.82,403.25C648.792,402.057 649.213,400.897 650,400C650.585,399.519 651.239,399.128 651.94,398.84C652.847,398.403 653.799,398.068 654.78,397.84C655.094,397.731 655.42,397.658 655.75,397.62L655.75,397.63ZM592.42,404.86C592.652,402.762 593.212,400.714 594.08,398.79C594.937,396.813 596.076,394.971 597.46,393.32C598.74,391.81 599.85,391.05 600.78,391.05C600.85,391.186 600.877,391.339 600.86,391.49C600.832,392.255 600.711,393.014 600.5,393.75C600.23,394.77 599.896,395.772 599.5,396.75C599.08,397.79 598.707,398.683 598.38,399.43C597.45,401.465 596.391,403.439 595.21,405.34C594.33,406.75 593.66,407.76 593.21,408.34C592.53,407.61 592.25,406.47 592.41,404.85L592.42,404.86Z" style="fill:rgb(43,31,91);fill-rule:nonzero;"/>
        </g>
    </g>
</svg>
